<svg width="76" height="75" viewBox="0 0 76 75" fill="none" xmlns="http://www.w3.org/2000/svg">
<path d="M9.125 74.8364C6.85625 74.8364 4.91475 74.0293 3.3005 72.4151C1.68625 70.8008 0.87775 68.8579 0.875 66.5864V8.83643C0.875 6.56768 1.6835 4.62618 3.3005 3.01193C4.9175 1.39768 6.859 0.589176 9.125 0.586426H66.875C69.1438 0.586426 71.0866 1.39493 72.7036 3.01193C74.3206 4.62893 75.1277 6.57043 75.125 8.83643V66.5864C75.125 68.8552 74.3179 70.798 72.7036 72.4151C71.0894 74.0321 69.1465 74.8392 66.875 74.8364H9.125ZM13.25 58.3364H62.75L47.2812 37.7114L34.9062 54.2114L25.625 41.8364L13.25 58.3364Z" fill="url(#paint0_linear_87_1883)"/>
<defs>
<linearGradient id="paint0_linear_87_1883" x1="38" y1="0.586426" x2="38" y2="74.8364" gradientUnits="userSpaceOnUse">
<stop stop-color="#1253E9"/>
<stop offset="0.556" stop-color="#852BE1"/>
<stop offset="1" stop-color="#EB07D9"/>
</linearGradient>
</defs>
</svg>
