<svg width="86" height="63" viewBox="0 0 86 63" fill="none" xmlns="http://www.w3.org/2000/svg">
<path d="M58.6364 0C59.6731 0 60.6674 0.414843 61.4005 1.15327C62.1336 1.89169 62.5455 2.89321 62.5455 3.9375C62.5455 10.8873 70.3806 14.9492 76.06 10.9437L82.9235 6.10313C83.2166 5.89623 83.5603 5.77433 83.9174 5.75072C84.2745 5.72711 84.6312 5.80269 84.9485 5.96923C85.2659 6.13576 85.5317 6.38686 85.7172 6.69514C85.9026 7.00342 86.0004 7.35706 86 7.7175V55.2825C86.0004 55.6429 85.9026 55.9966 85.7172 56.3049C85.5317 56.6131 85.2659 56.8642 84.9485 57.0308C84.6312 57.1973 84.2745 57.2729 83.9174 57.2493C83.5603 57.2257 83.2166 57.1038 82.9235 56.8969L76.06 52.0563C70.3806 48.0508 62.5455 52.1127 62.5455 59.0625C62.5455 60.1068 62.1336 61.1083 61.4005 61.8467C60.6674 62.5852 59.6731 63 58.6364 63H3.90909C2.87234 63 1.87804 62.5852 1.14495 61.8467C0.411849 61.1083 0 60.1068 0 59.0625V3.9375C0 2.89321 0.411849 1.89169 1.14495 1.15327C1.87804 0.414843 2.87234 0 3.90909 0H58.6364ZM25.0182 19.0142C24.6577 19.0141 24.3083 19.1395 24.0291 19.3691C23.7498 19.5987 23.5579 19.9184 23.4858 20.2742L23.4545 20.5852V42.4069C23.4545 42.6619 23.516 42.9132 23.6337 43.139C23.7513 43.3649 23.9217 43.5586 24.1301 43.7034C24.3385 43.8483 24.5788 43.94 24.8301 43.9707C25.0815 44.0013 25.3365 43.97 25.5733 43.8795L25.8586 43.7378L42.8827 32.8269C43.082 32.699 43.25 32.5272 43.3739 32.3245C43.4978 32.1218 43.5745 31.8935 43.5982 31.6566C43.622 31.4198 43.592 31.1806 43.5108 30.957C43.4295 30.7335 43.299 30.5314 43.129 30.366L42.8827 30.1691L25.8586 19.2544C25.6064 19.0969 25.3149 19.011 25.0182 19.0142Z" fill="url(#paint0_linear_89_2494)"/>
<defs>
<linearGradient id="paint0_linear_89_2494" x1="43" y1="0" x2="43" y2="63" gradientUnits="userSpaceOnUse">
<stop stop-color="#1253E9"/>
<stop offset="0.556" stop-color="#852BE1"/>
<stop offset="1" stop-color="#EB07D9"/>
</linearGradient>
</defs>
</svg>
