<svg width="93" height="75" viewBox="0 0 93 75" fill="none" xmlns="http://www.w3.org/2000/svg">
<path fill-rule="evenodd" clip-rule="evenodd" d="M1.0602 9.0655C-3.46452e-07 11.6139 0 14.8468 0 21.3125V24.7812C0 26.696 1.5624 28.25 3.4875 28.25H4.65C7.11651 28.25 9.48201 29.2246 11.2261 30.9593C12.9702 32.694 13.95 35.0467 13.95 37.5C13.95 39.9533 12.9702 42.306 11.2261 44.0407C9.48201 45.7754 7.11651 46.75 4.65 46.75H3.4875C2.56256 46.75 1.6755 47.1155 1.02146 47.766C0.367432 48.4165 0 49.2988 0 50.2188V53.6875C0 60.1533 -3.46452e-07 63.3861 1.0602 65.9345C1.76126 67.6184 2.78901 69.1485 4.08474 70.4372C5.38047 71.726 6.91878 72.7482 8.6118 73.4455C11.174 74.5 14.4243 74.5 20.925 74.5H72.075C78.5757 74.5 81.8261 74.5 84.3882 73.4455C86.0812 72.7482 87.6195 71.726 88.9153 70.4372C90.211 69.1485 91.2387 67.6184 91.9398 65.9345C93 63.3861 93 60.1533 93 53.6875V50.2188C93 49.2988 92.6326 48.4165 91.9785 47.766C91.3245 47.1155 90.4374 46.75 89.5125 46.75H88.35C85.8835 46.75 83.518 45.7754 81.7739 44.0407C80.0298 42.306 79.05 39.9533 79.05 37.5C79.05 35.0467 80.0298 32.694 81.7739 30.9593C83.518 29.2246 85.8835 28.25 88.35 28.25H89.5125C90.4374 28.25 91.3245 27.8845 91.9785 27.234C92.6326 26.5835 93 25.7012 93 24.7812V21.3125C93 14.8468 93 11.6139 91.9398 9.0655C91.2387 7.38158 90.211 5.85154 88.9153 4.56278C87.6195 3.27402 86.0812 2.2518 84.3882 1.5545C81.8261 0.500001 78.5757 0.5 72.075 0.5H20.925C14.4243 0.5 11.174 0.500001 8.6118 1.5545C6.91878 2.2518 5.38047 3.27402 4.08474 4.56278C2.78901 5.85154 1.76126 7.38158 1.0602 9.0655ZM44.4401 31.432C43.9937 32.579 43.7705 33.1525 43.3566 33.541C43.2414 33.6507 43.1152 33.7484 42.9799 33.8324C42.4963 34.1284 41.8965 34.1839 40.6968 34.2949C38.6647 34.4799 37.6511 34.577 37.3395 35.1736C37.2761 35.2989 37.2322 35.433 37.2093 35.5714C37.107 36.242 37.851 36.945 39.3483 38.3464L39.7621 38.7349C40.4596 39.3916 40.8084 39.72 41.013 40.127C41.1308 40.3759 41.2107 40.6409 41.2502 40.9132C41.3153 41.3665 41.213 41.8382 41.0084 42.791L40.934 43.1333C40.5666 44.8399 40.3853 45.6909 40.6131 46.1118C40.7108 46.2954 40.8547 46.4507 41.0307 46.5625C41.2068 46.6744 41.4089 46.739 41.6175 46.75C42.0825 46.7731 42.7382 46.2228 44.0541 45.1174C44.9144 44.3866 45.3468 44.0259 45.8304 43.8825C46.2671 43.7519 46.7329 43.7519 47.1696 43.8825C47.6532 44.0213 48.0857 44.3913 48.9506 45.1174C50.2619 46.2228 50.9175 46.7731 51.3825 46.75C51.5911 46.739 51.7932 46.6744 51.9693 46.5625C52.1453 46.4507 52.2892 46.2954 52.3869 46.1118C52.6147 45.6955 52.4334 44.8399 52.0614 43.1333L51.9916 42.791C51.787 41.8429 51.6847 41.3665 51.7499 40.9132C51.7893 40.6409 51.8692 40.3759 51.987 40.127C52.1916 39.72 52.5404 39.387 53.2379 38.7395L53.6563 38.3464C55.1443 36.945 55.893 36.242 55.7907 35.5714C55.7678 35.433 55.7239 35.2989 55.6605 35.1736C55.349 34.577 54.3353 34.4799 52.3032 34.2949C51.1035 34.1839 50.5037 34.1284 50.0247 33.8324C49.8878 33.7486 49.76 33.651 49.6434 33.541C49.2249 33.1525 49.0064 32.579 48.56 31.432C47.7788 29.4247 47.3882 28.4165 46.7558 28.2777C46.5867 28.2464 46.4133 28.2464 46.2443 28.2777C45.6119 28.4165 45.2213 29.4247 44.4401 31.432Z" fill="url(#paint0_linear_89_2475)"/>
<defs>
<linearGradient id="paint0_linear_89_2475" x1="46.5" y1="0.5" x2="46.5" y2="74.5" gradientUnits="userSpaceOnUse">
<stop stop-color="#1253E9"/>
<stop offset="0.556" stop-color="#852BE1"/>
<stop offset="1" stop-color="#EB07D9"/>
</linearGradient>
</defs>
</svg>
