<svg width="71" height="82" viewBox="0 0 71 82" fill="none" xmlns="http://www.w3.org/2000/svg">
<path d="M23.7682 7.80952V0H47.2318V7.80952H23.7682ZM27.6788 53.6905L23.3771 45.1C23.0512 44.3841 22.5624 43.8466 21.9106 43.4873C21.2588 43.1281 20.5745 42.9498 19.8575 42.9524H0.5C1.47765 34.1667 5.2905 26.7645 11.9385 20.746C18.5866 14.7275 26.4404 11.7169 35.5 11.7143C39.541 11.7143 43.419 12.3651 47.1341 13.6667C50.8492 14.9683 54.3361 16.8556 57.595 19.3286L63.0698 13.8619L68.5447 19.3286L63.0698 24.7952C65.1555 27.5286 66.8175 30.409 68.0559 33.4365C69.2942 36.464 70.1089 39.6359 70.5 42.9524H53.5866L46.8408 29.481C46.1238 27.9841 44.9506 27.2357 43.3212 27.2357C41.6918 27.2357 40.5186 27.9841 39.8017 29.481L27.6788 53.6905ZM35.5 82C26.4404 82 18.5866 78.9907 11.9385 72.9722C5.2905 66.9537 1.47765 59.5502 0.5 50.7619H17.4134L24.1592 64.2333C24.8762 65.7302 26.0493 66.4786 27.6788 66.4786C29.3082 66.4786 30.4814 65.7302 31.1983 64.2333L43.3212 40.0238L47.6229 48.6143C47.9488 49.3302 48.4376 49.8677 49.0894 50.227C49.7411 50.5862 50.4255 50.7645 51.1425 50.7619H70.5C69.5223 59.5476 65.7095 66.9497 59.0614 72.9683C52.4134 78.9868 44.5596 81.9974 35.5 82Z" fill="url(#paint0_linear_89_2488)"/>
<defs>
<linearGradient id="paint0_linear_89_2488" x1="35.5" y1="0" x2="35.5" y2="82" gradientUnits="userSpaceOnUse">
<stop stop-color="#1253E9"/>
<stop offset="0.556" stop-color="#852BE1"/>
<stop offset="1" stop-color="#EB07D9"/>
</linearGradient>
</defs>
</svg>
